<mxfile host="app.diagrams.net" modified="2023-09-23T09:17:19.399Z" agent="Mozilla/5.0 (Macintosh; Intel Mac OS X 10_15_7) AppleWebKit/537.36 (KHTML, like Gecko) Chrome/117.0.0.0 Safari/537.36" etag="6ZlLvFW_-kVzy2fnPSP7" version="21.8.1" type="github">
  <diagram name="第 1 页" id="2nmkqMmpdVOXknUFFFJr">
    <mxGraphModel dx="954" dy="495" grid="1" gridSize="10" guides="1" tooltips="1" connect="1" arrows="1" fold="1" page="1" pageScale="1" pageWidth="827" pageHeight="1169" math="0" shadow="0">
      <root>
        <mxCell id="0" />
        <mxCell id="1" parent="0" />
        <mxCell id="ub2z6pUdlAEDYnLQV5LL-1" value="开始" style="ellipse;whiteSpace=wrap;html=1;" vertex="1" parent="1">
          <mxGeometry x="350" y="20" width="120" height="80" as="geometry" />
        </mxCell>
        <mxCell id="ub2z6pUdlAEDYnLQV5LL-2" value="结束" style="ellipse;whiteSpace=wrap;html=1;" vertex="1" parent="1">
          <mxGeometry x="350" y="1510" width="120" height="80" as="geometry" />
        </mxCell>
        <mxCell id="ub2z6pUdlAEDYnLQV5LL-22" value="" style="edgeStyle=orthogonalEdgeStyle;rounded=0;orthogonalLoop=1;jettySize=auto;html=1;" edge="1" parent="1" source="ub2z6pUdlAEDYnLQV5LL-3" target="ub2z6pUdlAEDYnLQV5LL-4">
          <mxGeometry relative="1" as="geometry" />
        </mxCell>
        <mxCell id="ub2z6pUdlAEDYnLQV5LL-3" value="获取当前时间的评估月份所有的理赔融合表数据" style="rounded=1;whiteSpace=wrap;html=1;absoluteArcSize=1;arcSize=14;strokeWidth=2;" vertex="1" parent="1">
          <mxGeometry x="220" y="160" width="100" height="100" as="geometry" />
        </mxCell>
        <mxCell id="ub2z6pUdlAEDYnLQV5LL-23" value="" style="edgeStyle=orthogonalEdgeStyle;rounded=0;orthogonalLoop=1;jettySize=auto;html=1;" edge="1" parent="1" source="ub2z6pUdlAEDYnLQV5LL-4" target="ub2z6pUdlAEDYnLQV5LL-9">
          <mxGeometry relative="1" as="geometry" />
        </mxCell>
        <mxCell id="ub2z6pUdlAEDYnLQV5LL-24" value="" style="edgeStyle=orthogonalEdgeStyle;rounded=0;orthogonalLoop=1;jettySize=auto;html=1;" edge="1" parent="1" source="ub2z6pUdlAEDYnLQV5LL-4" target="ub2z6pUdlAEDYnLQV5LL-8">
          <mxGeometry relative="1" as="geometry" />
        </mxCell>
        <mxCell id="ub2z6pUdlAEDYnLQV5LL-4" value="计算已发生未报告赔款准备金" style="rounded=1;whiteSpace=wrap;html=1;absoluteArcSize=1;arcSize=14;strokeWidth=2;" vertex="1" parent="1">
          <mxGeometry x="220" y="310" width="100" height="100" as="geometry" />
        </mxCell>
        <mxCell id="ub2z6pUdlAEDYnLQV5LL-8" value="再保后ibnr分摊金额求和" style="strokeWidth=2;html=1;shape=mxgraph.flowchart.document2;whiteSpace=wrap;size=0.25;" vertex="1" parent="1">
          <mxGeometry x="50" y="330" width="100" height="60" as="geometry" />
        </mxCell>
        <mxCell id="ub2z6pUdlAEDYnLQV5LL-25" value="" style="edgeStyle=orthogonalEdgeStyle;rounded=0;orthogonalLoop=1;jettySize=auto;html=1;" edge="1" parent="1" source="ub2z6pUdlAEDYnLQV5LL-9" target="ub2z6pUdlAEDYnLQV5LL-10">
          <mxGeometry relative="1" as="geometry" />
        </mxCell>
        <mxCell id="ub2z6pUdlAEDYnLQV5LL-26" value="" style="edgeStyle=orthogonalEdgeStyle;rounded=0;orthogonalLoop=1;jettySize=auto;html=1;" edge="1" parent="1" source="ub2z6pUdlAEDYnLQV5LL-9" target="ub2z6pUdlAEDYnLQV5LL-11">
          <mxGeometry relative="1" as="geometry" />
        </mxCell>
        <mxCell id="ub2z6pUdlAEDYnLQV5LL-9" value="计算已发生未报告边际" style="rounded=1;whiteSpace=wrap;html=1;absoluteArcSize=1;arcSize=14;strokeWidth=2;" vertex="1" parent="1">
          <mxGeometry x="220" y="465" width="100" height="100" as="geometry" />
        </mxCell>
        <mxCell id="ub2z6pUdlAEDYnLQV5LL-10" value="再保后风险边际求和" style="shape=tape;whiteSpace=wrap;html=1;strokeWidth=2;size=0.19" vertex="1" parent="1">
          <mxGeometry x="60" y="482.5" width="100" height="65" as="geometry" />
        </mxCell>
        <mxCell id="ub2z6pUdlAEDYnLQV5LL-27" value="" style="edgeStyle=orthogonalEdgeStyle;rounded=0;orthogonalLoop=1;jettySize=auto;html=1;" edge="1" parent="1" source="ub2z6pUdlAEDYnLQV5LL-11" target="ub2z6pUdlAEDYnLQV5LL-12">
          <mxGeometry relative="1" as="geometry" />
        </mxCell>
        <mxCell id="ub2z6pUdlAEDYnLQV5LL-11" value="计算未决赔款准备金评估险类维度分析" style="rounded=1;whiteSpace=wrap;html=1;absoluteArcSize=1;arcSize=14;strokeWidth=2;" vertex="1" parent="1">
          <mxGeometry x="220" y="610" width="100" height="100" as="geometry" />
        </mxCell>
        <mxCell id="ub2z6pUdlAEDYnLQV5LL-12" value="根据险类分组求和“再保后会计未决”" style="shape=tape;whiteSpace=wrap;html=1;strokeWidth=2;size=0.19" vertex="1" parent="1">
          <mxGeometry x="60" y="627.5" width="100" height="65" as="geometry" />
        </mxCell>
        <mxCell id="ub2z6pUdlAEDYnLQV5LL-29" value="" style="edgeStyle=orthogonalEdgeStyle;rounded=0;orthogonalLoop=1;jettySize=auto;html=1;" edge="1" parent="1" source="ub2z6pUdlAEDYnLQV5LL-13" target="ub2z6pUdlAEDYnLQV5LL-16">
          <mxGeometry relative="1" as="geometry" />
        </mxCell>
        <mxCell id="ub2z6pUdlAEDYnLQV5LL-13" value="获取当前评估月份的所有理赔融合表数据" style="rounded=1;whiteSpace=wrap;html=1;absoluteArcSize=1;arcSize=14;strokeWidth=2;" vertex="1" parent="1">
          <mxGeometry x="500" y="160" width="100" height="100" as="geometry" />
        </mxCell>
        <mxCell id="ub2z6pUdlAEDYnLQV5LL-14" value="" style="strokeWidth=2;html=1;shape=mxgraph.flowchart.annotation_2;align=left;labelPosition=right;pointerEvents=1;direction=south;" vertex="1" parent="1">
          <mxGeometry x="270" y="100" width="280" height="50" as="geometry" />
        </mxCell>
        <mxCell id="ub2z6pUdlAEDYnLQV5LL-30" value="" style="edgeStyle=orthogonalEdgeStyle;rounded=0;orthogonalLoop=1;jettySize=auto;html=1;" edge="1" parent="1" source="ub2z6pUdlAEDYnLQV5LL-16" target="ub2z6pUdlAEDYnLQV5LL-19">
          <mxGeometry relative="1" as="geometry" />
        </mxCell>
        <mxCell id="ub2z6pUdlAEDYnLQV5LL-16" value="判断是否存在一个相同评估月份和相同起保日期或核赔日期的图标数据" style="strokeWidth=2;html=1;shape=mxgraph.flowchart.decision;whiteSpace=wrap;" vertex="1" parent="1">
          <mxGeometry x="450" y="310" width="200" height="100" as="geometry" />
        </mxCell>
        <mxCell id="ub2z6pUdlAEDYnLQV5LL-17" value="展示数据" style="text;strokeColor=none;align=center;fillColor=none;html=1;verticalAlign=middle;whiteSpace=wrap;rounded=0;" vertex="1" parent="1">
          <mxGeometry x="310" y="110" width="60" height="30" as="geometry" />
        </mxCell>
        <mxCell id="ub2z6pUdlAEDYnLQV5LL-18" value="图片数据" style="text;strokeColor=none;align=center;fillColor=none;html=1;verticalAlign=middle;whiteSpace=wrap;rounded=0;" vertex="1" parent="1">
          <mxGeometry x="440" y="110" width="60" height="30" as="geometry" />
        </mxCell>
        <mxCell id="ub2z6pUdlAEDYnLQV5LL-31" value="" style="edgeStyle=orthogonalEdgeStyle;rounded=0;orthogonalLoop=1;jettySize=auto;html=1;" edge="1" parent="1" source="ub2z6pUdlAEDYnLQV5LL-19" target="ub2z6pUdlAEDYnLQV5LL-20">
          <mxGeometry relative="1" as="geometry" />
        </mxCell>
        <mxCell id="ub2z6pUdlAEDYnLQV5LL-19" value="对数据按照出险日期分组" style="rounded=1;whiteSpace=wrap;html=1;absoluteArcSize=1;arcSize=14;strokeWidth=2;" vertex="1" parent="1">
          <mxGeometry x="500" y="465" width="100" height="100" as="geometry" />
        </mxCell>
        <mxCell id="ub2z6pUdlAEDYnLQV5LL-32" value="" style="edgeStyle=orthogonalEdgeStyle;rounded=0;orthogonalLoop=1;jettySize=auto;html=1;" edge="1" parent="1" source="ub2z6pUdlAEDYnLQV5LL-20" target="ub2z6pUdlAEDYnLQV5LL-21">
          <mxGeometry relative="1" as="geometry" />
        </mxCell>
        <mxCell id="ub2z6pUdlAEDYnLQV5LL-35" value="" style="edgeStyle=orthogonalEdgeStyle;rounded=0;orthogonalLoop=1;jettySize=auto;html=1;" edge="1" parent="1" source="ub2z6pUdlAEDYnLQV5LL-20" target="ub2z6pUdlAEDYnLQV5LL-33">
          <mxGeometry relative="1" as="geometry" />
        </mxCell>
        <mxCell id="ub2z6pUdlAEDYnLQV5LL-20" value="计算再保前已发生未报告赔款准备金" style="rounded=1;whiteSpace=wrap;html=1;absoluteArcSize=1;arcSize=14;strokeWidth=2;" vertex="1" parent="1">
          <mxGeometry x="500" y="610" width="100" height="100" as="geometry" />
        </mxCell>
        <mxCell id="ub2z6pUdlAEDYnLQV5LL-21" value="再保前IBNR分摊金额求和" style="shape=tape;whiteSpace=wrap;html=1;strokeWidth=2;size=0.19" vertex="1" parent="1">
          <mxGeometry x="660" y="627.5" width="100" height="65" as="geometry" />
        </mxCell>
        <mxCell id="ub2z6pUdlAEDYnLQV5LL-37" value="" style="edgeStyle=orthogonalEdgeStyle;rounded=0;orthogonalLoop=1;jettySize=auto;html=1;" edge="1" parent="1" source="ub2z6pUdlAEDYnLQV5LL-33" target="ub2z6pUdlAEDYnLQV5LL-36">
          <mxGeometry relative="1" as="geometry" />
        </mxCell>
        <mxCell id="ub2z6pUdlAEDYnLQV5LL-42" value="" style="edgeStyle=orthogonalEdgeStyle;rounded=0;orthogonalLoop=1;jettySize=auto;html=1;" edge="1" parent="1" source="ub2z6pUdlAEDYnLQV5LL-33" target="ub2z6pUdlAEDYnLQV5LL-38">
          <mxGeometry relative="1" as="geometry" />
        </mxCell>
        <mxCell id="ub2z6pUdlAEDYnLQV5LL-33" value="计算再保后已发生未报告赔款准备金" style="rounded=1;whiteSpace=wrap;html=1;absoluteArcSize=1;arcSize=14;strokeWidth=2;" vertex="1" parent="1">
          <mxGeometry x="500" y="760" width="100" height="100" as="geometry" />
        </mxCell>
        <mxCell id="ub2z6pUdlAEDYnLQV5LL-36" value="再保后IBNR分摊金额求和" style="shape=tape;whiteSpace=wrap;html=1;strokeWidth=2;size=0.19" vertex="1" parent="1">
          <mxGeometry x="660" y="777.5" width="100" height="65" as="geometry" />
        </mxCell>
        <mxCell id="ub2z6pUdlAEDYnLQV5LL-40" value="" style="edgeStyle=orthogonalEdgeStyle;rounded=0;orthogonalLoop=1;jettySize=auto;html=1;" edge="1" parent="1" source="ub2z6pUdlAEDYnLQV5LL-38" target="ub2z6pUdlAEDYnLQV5LL-39">
          <mxGeometry relative="1" as="geometry" />
        </mxCell>
        <mxCell id="ub2z6pUdlAEDYnLQV5LL-44" value="" style="edgeStyle=orthogonalEdgeStyle;rounded=0;orthogonalLoop=1;jettySize=auto;html=1;" edge="1" parent="1" source="ub2z6pUdlAEDYnLQV5LL-38" target="ub2z6pUdlAEDYnLQV5LL-43">
          <mxGeometry relative="1" as="geometry" />
        </mxCell>
        <mxCell id="ub2z6pUdlAEDYnLQV5LL-38" value="计算再保前已发生未报告边际" style="rounded=1;whiteSpace=wrap;html=1;absoluteArcSize=1;arcSize=14;strokeWidth=2;" vertex="1" parent="1">
          <mxGeometry x="500" y="920" width="100" height="100" as="geometry" />
        </mxCell>
        <mxCell id="ub2z6pUdlAEDYnLQV5LL-39" value="再保前风险边际求和" style="shape=tape;whiteSpace=wrap;html=1;strokeWidth=2;size=0.19" vertex="1" parent="1">
          <mxGeometry x="670" y="937.5" width="100" height="65" as="geometry" />
        </mxCell>
        <mxCell id="ub2z6pUdlAEDYnLQV5LL-46" value="" style="edgeStyle=orthogonalEdgeStyle;rounded=0;orthogonalLoop=1;jettySize=auto;html=1;" edge="1" parent="1" source="ub2z6pUdlAEDYnLQV5LL-43" target="ub2z6pUdlAEDYnLQV5LL-45">
          <mxGeometry relative="1" as="geometry" />
        </mxCell>
        <mxCell id="ub2z6pUdlAEDYnLQV5LL-49" value="" style="edgeStyle=orthogonalEdgeStyle;rounded=0;orthogonalLoop=1;jettySize=auto;html=1;" edge="1" parent="1" source="ub2z6pUdlAEDYnLQV5LL-43" target="ub2z6pUdlAEDYnLQV5LL-47">
          <mxGeometry relative="1" as="geometry" />
        </mxCell>
        <mxCell id="ub2z6pUdlAEDYnLQV5LL-43" value="计算再保后已发生未报告边际" style="rounded=1;whiteSpace=wrap;html=1;absoluteArcSize=1;arcSize=14;strokeWidth=2;" vertex="1" parent="1">
          <mxGeometry x="500" y="1069" width="100" height="100" as="geometry" />
        </mxCell>
        <mxCell id="ub2z6pUdlAEDYnLQV5LL-45" value="再保前法定未决赔款" style="shape=tape;whiteSpace=wrap;html=1;strokeWidth=2;size=0.19" vertex="1" parent="1">
          <mxGeometry x="680" y="1086.5" width="100" height="65" as="geometry" />
        </mxCell>
        <mxCell id="ub2z6pUdlAEDYnLQV5LL-50" value="" style="edgeStyle=orthogonalEdgeStyle;rounded=0;orthogonalLoop=1;jettySize=auto;html=1;" edge="1" parent="1" source="ub2z6pUdlAEDYnLQV5LL-47" target="ub2z6pUdlAEDYnLQV5LL-48">
          <mxGeometry relative="1" as="geometry" />
        </mxCell>
        <mxCell id="ub2z6pUdlAEDYnLQV5LL-52" value="" style="edgeStyle=orthogonalEdgeStyle;rounded=0;orthogonalLoop=1;jettySize=auto;html=1;" edge="1" parent="1" source="ub2z6pUdlAEDYnLQV5LL-47" target="ub2z6pUdlAEDYnLQV5LL-51">
          <mxGeometry relative="1" as="geometry" />
        </mxCell>
        <mxCell id="ub2z6pUdlAEDYnLQV5LL-47" value="计算理赔未决赔款准备金总额" style="rounded=1;whiteSpace=wrap;html=1;absoluteArcSize=1;arcSize=14;strokeWidth=2;" vertex="1" parent="1">
          <mxGeometry x="500" y="1220" width="100" height="100" as="geometry" />
        </mxCell>
        <mxCell id="ub2z6pUdlAEDYnLQV5LL-48" value="再保后风险边际求和" style="shape=tape;whiteSpace=wrap;html=1;strokeWidth=2;size=0.19" vertex="1" parent="1">
          <mxGeometry x="680" y="1237.5" width="100" height="65" as="geometry" />
        </mxCell>
        <mxCell id="ub2z6pUdlAEDYnLQV5LL-54" value="" style="edgeStyle=orthogonalEdgeStyle;rounded=0;orthogonalLoop=1;jettySize=auto;html=1;" edge="1" parent="1" source="ub2z6pUdlAEDYnLQV5LL-51" target="ub2z6pUdlAEDYnLQV5LL-53">
          <mxGeometry relative="1" as="geometry" />
        </mxCell>
        <mxCell id="ub2z6pUdlAEDYnLQV5LL-51" value="计算摊回未决赔款准备金总额" style="rounded=1;whiteSpace=wrap;html=1;absoluteArcSize=1;arcSize=14;strokeWidth=2;" vertex="1" parent="1">
          <mxGeometry x="500" y="1380" width="100" height="100" as="geometry" />
        </mxCell>
        <mxCell id="ub2z6pUdlAEDYnLQV5LL-53" value="再保后法定未决赔款求和" style="shape=tape;whiteSpace=wrap;html=1;strokeWidth=2;size=0.19" vertex="1" parent="1">
          <mxGeometry x="680" y="1397.5" width="100" height="65" as="geometry" />
        </mxCell>
      </root>
    </mxGraphModel>
  </diagram>
</mxfile>
